<mxfile host="app.diagrams.net" modified="2024-08-21T03:45:32.221Z" agent="Mozilla/5.0 (Windows NT 10.0; Win64; x64) AppleWebKit/537.36 (KHTML, like Gecko) Chrome/127.0.0.0 Safari/537.36" version="24.6.2" etag="_6SohufXbr4jB844Tshi" type="github">
  <diagram name="第 1 页" id="maE_FUoq1uQ32C5Su5Og">
    <mxGraphModel>
      <root>
        <mxCell id="0" />
        <mxCell id="1" parent="0" />
      </root>
    </mxGraphModel>
  </diagram>
</mxfile>
